# xmcd CD database file
# Copyright (C) 1997 Ti Kan
#
# Track frame offsets:
#  182
#  14787
#  27100
#  46080
#  59542
#  72435
#  87200
#  100607
#  114295
#  124505
#  138100
#  155040
#  167885
#  181185
#  196377
#  208525
#  221420
#  232527
#
# Disc length: 3288 seconds
#
# Revision: 1
# Processed by: cddbd v1.4b41PL1 Copyright (c) Steve Scherf et al.
# Submitted via: CDWizzard Release:4.22
#
DISCID=ea0cd612
DTITLE=Muddy Waters - Masters of the Blues - The Best of Muddy Waters
DYEAR=1900
DGENRE=
TTITLE0=Baby Please Don't Go
TTITLE1=Walkin' Thru The Park
TTITLE2=Got My Mojo Working
TTITLE3=Rollin' Stone
TTITLE4=I Just Want To Make Love To You
TTITLE5=Still A Fool (Two Trains Running)
TTITLE6=Rollin - and Tumblin'
TTITLE7=I'm Ready
TTITLE8=Tiger In Your Tank
TTITLE9=I Want You T Love Me
TTITLE10=Rock Me
TTITLE11=Hoochie Coochie Man
TTITLE12=She Moves Me
TTITLE13=Standing Around Crying
TTITLE14=Long Distance Call
TTITLE15=40 Days and 40 Nights
TTITLE16=Gone To Main Street
TTITLE17=My Eyes (Keep Me In Trouble)
EXTD=
EXTT0=
EXTT1=
EXTT2=
EXTT3=
EXTT4=
EXTT5=
EXTT6=
EXTT7=
EXTT8=
EXTT9=
EXTT10=
EXTT11=
EXTT12=
EXTT13=
EXTT14=
EXTT15=
EXTT16=
EXTT17=
PLAYORDER=
